<svg width="128" height="128" viewBox="0 0 128 128" fill="none" xmlns="http://www.w3.org/2000/svg">
<rect width="128" height="128" rx="15" fill="white"/>
<path d="M55.984 67.56C56.9227 67.56 57.7333 67.3893 58.416 67.048C59.0987 66.6853 59.6747 66.2373 60.144 65.704C60.6347 65.1707 61.0507 64.6587 61.392 64.168L62.736 65.448C62.288 66.152 61.744 66.8027 61.104 67.4C60.4853 67.9973 59.7387 68.4667 58.864 68.808C58.0107 69.1493 57.008 69.32 55.856 69.32C54.192 69.32 52.72 68.9573 51.44 68.232C50.1813 67.5067 49.2 66.5147 48.496 65.256C47.792 63.976 47.44 62.504 47.44 60.84C47.44 59.1547 47.8027 57.6827 48.528 56.424C49.2747 55.1653 50.2987 54.184 51.6 53.48C52.9227 52.7547 54.448 52.392 56.176 52.392C57.2213 52.392 58.16 52.5093 58.992 52.744C59.824 52.9787 60.528 53.256 61.104 53.576C61.7013 53.896 62.1493 54.1947 62.448 54.472V58.376H59.632V54.76C59.8667 54.8027 60.08 54.8773 60.272 54.984C60.464 55.0693 60.624 55.1973 60.752 55.368C60.9013 55.5173 60.9973 55.6987 61.04 55.912C61.104 56.1253 61.1147 56.3707 61.072 56.648C60.688 55.9227 60.0373 55.3253 59.12 54.856C58.224 54.3867 57.2427 54.152 56.176 54.152C54.9173 54.152 53.8613 54.44 53.008 55.016C52.1547 55.5707 51.5147 56.36 51.088 57.384C50.6613 58.3867 50.448 59.5387 50.448 60.84C50.448 61.8427 50.5653 62.76 50.8 63.592C51.056 64.4027 51.4187 65.1067 51.888 65.704C52.3573 66.3013 52.9333 66.76 53.616 67.08C54.2987 67.4 55.088 67.56 55.984 67.56ZM81.9253 60.872C81.9253 62.5147 81.5626 63.976 80.8373 65.256C80.1333 66.536 79.1519 67.5387 77.8933 68.264C76.6346 68.968 75.1946 69.32 73.5733 69.32C71.9519 69.32 70.5119 68.968 69.2533 68.264C67.9946 67.5387 67.0026 66.536 66.2773 65.256C65.5733 63.976 65.2213 62.5147 65.2213 60.872C65.2213 59.6347 65.4239 58.4933 65.8293 57.448C66.2346 56.4027 66.8106 55.5067 67.5573 54.76C68.3253 54.0133 69.2106 53.4373 70.2133 53.032C71.2373 52.6053 72.3573 52.392 73.5733 52.392C74.7893 52.392 75.8986 52.6053 76.9013 53.032C77.9253 53.4373 78.8106 54.0133 79.5573 54.76C80.3253 55.5067 80.9119 56.4027 81.3173 57.448C81.7226 58.4933 81.9253 59.6347 81.9253 60.872ZM68.2293 60.872C68.2293 62.1947 68.4426 63.368 68.8693 64.392C69.3173 65.416 69.9359 66.2053 70.7253 66.76C71.5359 67.2933 72.4853 67.56 73.5733 67.56C74.7039 67.56 75.6639 67.2933 76.4533 66.76C77.2426 66.2053 77.8506 65.416 78.2773 64.392C78.7039 63.368 78.9173 62.1947 78.9173 60.872C78.9173 59.5067 78.7039 58.3227 78.2773 57.32C77.8506 56.296 77.2426 55.5173 76.4533 54.984C75.6639 54.4293 74.7039 54.152 73.5733 54.152C72.4853 54.152 71.5359 54.4293 70.7253 54.984C69.9359 55.5387 69.3173 56.3173 68.8693 57.32C68.4426 58.3227 68.2293 59.5067 68.2293 60.872ZM95.7903 52.488V55.336C95.6409 55.272 95.4596 55.2293 95.2463 55.208C95.0543 55.1653 94.8516 55.1333 94.6383 55.112C94.4249 55.0907 94.2223 55.08 94.0303 55.08C93.4543 55.08 92.9529 55.1653 92.5263 55.336C92.0996 55.4853 91.7156 55.72 91.3743 56.04C91.0543 56.3387 90.7556 56.7333 90.4783 57.224C90.2223 57.7147 89.9343 58.3013 89.6143 58.984L89.5823 56.968C89.9023 56.0507 90.3076 55.2507 90.7983 54.568C91.2889 53.8853 91.8543 53.352 92.4943 52.968C93.1556 52.584 93.8916 52.392 94.7023 52.392C94.9156 52.392 95.1183 52.4027 95.3103 52.424C95.5236 52.424 95.6836 52.4453 95.7903 52.488ZM84.6223 69V67.592H84.6543C85.4223 67.592 86.0516 67.5173 86.5423 67.368C87.0329 67.2187 87.2783 66.9093 87.2783 66.44V55.624C87.2783 55.304 87.1929 55.0693 87.0223 54.92C86.8516 54.7493 86.5849 54.6107 86.2223 54.504C85.8809 54.3973 85.4543 54.2907 84.9423 54.184L84.6223 54.12V52.712H89.8383V57.384L90.1263 57.096V66.568C90.1263 66.888 90.2756 67.1227 90.5743 67.272C90.8729 67.4213 91.2249 67.5173 91.6302 67.56C92.0569 67.5813 92.4303 67.592 92.7503 67.592H93.2943V69H84.6223ZM100.571 61C100.571 62.024 100.699 62.952 100.955 63.784C101.232 64.5947 101.616 65.288 102.107 65.864C102.619 66.4187 103.205 66.8453 103.867 67.144C104.528 67.4213 105.243 67.56 106.011 67.56C106.885 67.56 107.643 67.4 108.283 67.08C108.923 66.7387 109.456 66.3227 109.883 65.832C110.331 65.32 110.704 64.808 111.003 64.296L112.443 65.576C112.059 66.28 111.557 66.92 110.939 67.496C110.341 68.0507 109.627 68.4987 108.795 68.84C107.984 69.16 107.035 69.32 105.947 69.32C104.389 69.32 102.981 68.9787 101.723 68.296C100.485 67.6133 99.4934 66.6427 98.7468 65.384C98.0214 64.1253 97.6588 62.6427 97.6588 60.936C97.6588 59.2293 98.0001 57.7467 98.6828 56.488C99.3654 55.208 100.293 54.2053 101.467 53.48C102.64 52.7547 103.941 52.392 105.371 52.392C106.544 52.392 107.568 52.584 108.443 52.968C109.339 53.352 110.085 53.9173 110.683 54.664C111.301 55.4107 111.771 56.36 112.091 57.512C112.411 58.6427 112.571 59.9653 112.571 61.48H99.9628V59.784H110.427L109.531 60.424C109.509 59.3573 109.413 58.4293 109.243 57.64C109.072 56.8507 108.816 56.2 108.475 55.688C108.133 55.176 107.707 54.792 107.195 54.536C106.683 54.28 106.075 54.152 105.371 54.152C104.709 54.152 104.08 54.312 103.483 54.632C102.907 54.9307 102.395 55.3787 101.947 55.976C101.52 56.5733 101.179 57.2987 100.923 58.152C100.688 58.984 100.571 59.9333 100.571 61Z" fill="#F37726"/>
<path d="M23.2676 71V66.8164L28.6797 65.8867V27.6035H17.7227L16.7598 34.3105H11.8457V22.6562H52.0215V34.3105H47.1738L46.1777 27.6035H35.2207V65.8867L40.6328 66.8164V71H23.2676Z" fill="#616161"/>
<path d="M6.38281 81.7949L13.0664 79.5293C14.4258 83.6074 16.8047 86.5339 20.2031 88.3086C23.5638 90.0833 27.7363 90.9707 32.7207 90.9707H44.332C48.3724 90.9707 51.903 91.8203 54.9238 93.5195C57.9447 95.2188 60.2669 97.8431 61.8906 101.393C63.4388 97.8431 65.7233 95.2188 68.7441 93.5195C71.765 91.8203 75.3333 90.9707 79.4492 90.9707H91.1172C96.1016 90.9707 100.293 90.0833 103.691 88.3086C107.128 86.5339 109.507 83.6074 110.828 79.5293L117.455 81.7949C115.378 89.1204 112.074 94.3314 107.543 97.4277C103.049 100.562 97.5742 102.129 91.1172 102.129H79.4492C75.1823 102.129 71.8783 103.092 69.5371 105.018C67.2337 106.943 66.082 109.926 66.082 113.967H57.7559C57.7559 109.926 56.5664 106.943 54.1875 105.018C51.8464 103.092 48.5612 102.129 44.332 102.129H32.7207C26.3014 102.129 20.8262 100.562 16.2949 97.4277C11.7637 94.3314 8.45964 89.1204 6.38281 81.7949Z" fill="#F37726"/>
</svg>
