<?xml version="1.0" encoding="UTF-8" standalone="no"?>
<svg
   width="126.903"
   height="98.516602"
   viewBox="0 0 126.903 98.516602"
   fill="none"
   version="1.1"
   id="svg47"
   sodipodi:docname="logo.svg"
   inkscape:version="1.1.2 (b8e25be8, 2022-02-05)"
   xmlns:inkscape="http://www.inkscape.org/namespaces/inkscape"
   xmlns:sodipodi="http://sodipodi.sourceforge.net/DTD/sodipodi-0.dtd"
   xmlns="http://www.w3.org/2000/svg"
   xmlns:svg="http://www.w3.org/2000/svg">
  <defs
     id="defs51" />
  <sodipodi:namedview
     id="namedview49"
     pagecolor="#ffffff"
     bordercolor="#666666"
     borderopacity="1.0"
     inkscape:pageshadow="2"
     inkscape:pageopacity="0.0"
     inkscape:pagecheckerboard="0"
     showgrid="false"
     fit-margin-top="10"
     fit-margin-left="10"
     fit-margin-right="10"
     fit-margin-bottom="10"
     lock-margins="true"
     inkscape:zoom="1.559596"
     inkscape:cx="-9.2972798"
     inkscape:cy="49.051166"
     inkscape:window-width="2051"
     inkscape:window-height="1093"
     inkscape:window-x="61"
     inkscape:window-y="121"
     inkscape:window-maximized="0"
     inkscape:current-layer="svg47" />
  <path
     d="M 94.161,88.5166 92.559,83.792 c 2.883,-0.9609 4.952,-2.6426 6.206,-5.0449 1.255,-2.3757 1.882,-5.3252 1.882,-8.8486 v -8.2081 c 0,-2.8561 0.601,-5.3518 1.802,-7.4873 1.201,-2.1354 3.056,-3.777 5.565,-4.9248 -2.509,-1.0944 -4.364,-2.7093 -5.565,-4.8447 -1.201,-2.1354 -1.802,-4.6579 -1.802,-7.5674 v -8.248 c 0,-3.5235 -0.627,-6.4863 -1.882,-8.8887 -1.254,-2.429 -3.323,-4.1107 -6.206,-5.0449 L 94.161,10 c 5.178,1.4681 8.862,3.8037 11.05,7.0069 2.216,3.1764 3.324,7.0468 3.324,11.6113 v 8.248 c 0,3.0163 0.68,5.3519 2.042,7.0069 1.361,1.6282 3.47,2.4423 6.326,2.4423 v 5.8858 c -2.856,0 -4.965,0.8408 -6.326,2.5224 -1.362,1.655 -2.042,3.9773 -2.042,6.9668 v 8.2081 c 0,4.5377 -1.108,8.4082 -3.324,11.6113 -2.188,3.2031 -5.872,5.5387 -11.05,7.0068 z"
     fill="#f37726"
     id="path39" />
  <path
     d="M 32.743,88.5166 C 27.538,87.0485 23.827,84.7129 21.612,81.5098 19.423,78.3067 18.329,74.4362 18.329,69.8985 v -8.2081 c 0,-2.9895 -0.681,-5.3118 -2.042,-6.9668 C 14.925,53.042 12.83,52.2012 10,52.2012 v -5.8858 c 2.83,0 4.925,-0.8141 6.287,-2.4423 1.361,-1.655 2.042,-3.9906 2.042,-7.0069 v -8.248 c 0,-4.5645 1.094,-8.4349 3.283,-11.6113 C 23.827,13.8037 27.538,11.4681 32.743,10 l 1.601,4.6846 c -2.936,0.9342 -5.031,2.6159 -6.286,5.0449 -1.228,2.4024 -1.842,5.3652 -1.842,8.8887 v 8.248 c 0,2.8028 -0.56,5.2718 -1.681,7.4073 -1.121,2.1354 -2.816,3.8037 -5.085,5.0048 2.269,1.2279 3.964,2.9229 5.085,5.085 1.121,2.1354 1.681,4.5778 1.681,7.3271 v 8.2081 c 0,3.5234 0.614,6.4729 1.842,8.8486 1.255,2.4023 3.35,4.084 6.286,5.0449 z"
     fill="#f37726"
     id="path43" />
  <text
     xml:space="preserve"
     style="font-style:normal;font-weight:normal;font-size:40px;line-height:1.25;font-family:sans-serif;fill:#000000;fill-opacity:1;stroke:none"
     x="152.53888"
     y="62.42038"
     id="text2759"><tspan
       sodipodi:role="line"
       id="tspan2757"
       x="152.53888"
       y="62.42038"
       style="font-style:normal;font-variant:normal;font-weight:normal;font-stretch:normal;font-size:40px;font-family:Charter;-inkscape-font-specification:'Charter, Normal';font-variant-ligatures:normal;font-variant-caps:normal;font-variant-numeric:normal;font-variant-east-asian:normal" /></text>
  <text
     xml:space="preserve"
     style="font-style:normal;font-variant:normal;font-weight:normal;font-stretch:normal;font-size:77.3333px;line-height:1.25;font-family:Charter;-inkscape-font-specification:'Charter, Normal';font-variant-ligatures:normal;font-variant-caps:normal;font-variant-numeric:normal;font-variant-east-asian:normal;fill:#616161;fill-opacity:1;stroke:none;stroke-width:1.99215"
     x="40.971531"
     y="76.526596"
     id="text22603"><tspan
       sodipodi:role="line"
       id="tspan22601"
       x="40.971531"
       y="76.526596"
       style="font-style:normal;font-variant:normal;font-weight:normal;font-stretch:normal;font-size:77.3333px;font-family:Charter;-inkscape-font-specification:'Charter, Normal';font-variant-ligatures:normal;font-variant-caps:normal;font-variant-numeric:normal;font-variant-east-asian:normal;fill:#616161;fill-opacity:1;stroke-width:1.99215">T</tspan></text>
</svg>
