<svg width="210" height="128" viewBox="0 0 210 128" fill="none" xmlns="http://www.w3.org/2000/svg">
<path d="M25.2646 87.5742C20.0596 86.1061 16.3493 83.7705 14.1338 80.5674C11.945 77.3643 10.8506 73.4938 10.8506 68.9561V60.748C10.8506 57.7585 10.1699 55.4362 8.80859 53.7812C7.44727 52.0996 5.35189 51.2588 2.52246 51.2588V45.373C5.35189 45.373 7.44727 44.5589 8.80859 42.9307C10.1699 41.2757 10.8506 38.9401 10.8506 35.9238V27.6758C10.8506 23.1113 11.945 19.2409 14.1338 16.0645C16.3493 12.8613 20.0596 10.5257 25.2646 9.05762L26.8662 13.7422C23.93 14.6764 21.8346 16.3581 20.5801 18.7871C19.3522 21.1895 18.7383 24.1523 18.7383 27.6758V35.9238C18.7383 38.7266 18.1777 41.1956 17.0566 43.3311C15.9355 45.4665 14.2406 47.1348 11.9717 48.3359C14.2406 49.5638 15.9355 51.2588 17.0566 53.4209C18.1777 55.5563 18.7383 57.9987 18.7383 60.748V68.9561C18.7383 72.4795 19.3522 75.429 20.5801 77.8047C21.8346 80.207 23.93 81.8887 26.8662 82.8496L25.2646 87.5742Z" fill="#F37726"/>
<path d="M34.8164 67V63.6162L39.1938 62.8643V31.8999H30.3315L29.5527 37.3247H25.5781V27.8984H58.0732V37.3247H54.1523L53.3467 31.8999H44.4844V62.8643L48.8618 63.6162V67H34.8164ZM62.0747 67V63.6162L66.4521 62.8643V29.2681L62.0747 28.5161V25.1055H71.7427V41.8096C72.7453 40.4131 73.9717 39.3299 75.4219 38.5601C76.8721 37.7902 78.4834 37.4053 80.2559 37.4053C83.3711 37.4053 85.7881 38.3363 87.5068 40.1982C89.2256 42.0602 90.085 44.9248 90.085 48.792V62.8643L94.4624 63.6162V67H80.417V63.6162L84.7944 62.8643V48.7383C84.7944 46.3392 84.2752 44.5667 83.2368 43.4209C82.2163 42.2751 80.6855 41.7021 78.6445 41.7021C77.1943 41.7021 75.8695 42.0513 74.6699 42.7495C73.4883 43.4299 72.5125 44.3608 71.7427 45.5425V62.8643L76.1201 63.6162V67H62.0747ZM110.898 67.564C108.212 67.564 105.876 66.9552 103.889 65.7378C101.901 64.5024 100.362 62.7926 99.2695 60.6084C98.1953 58.4242 97.6582 55.8997 97.6582 53.0352V51.8535C97.6582 49.0964 98.2222 46.6346 99.3501 44.4683C100.496 42.284 102.009 40.5653 103.889 39.312C105.786 38.0409 107.854 37.4053 110.092 37.4053C112.706 37.4053 114.89 37.9424 116.645 39.0166C118.417 40.0908 119.751 41.6037 120.646 43.5552C121.542 45.4888 121.989 47.7715 121.989 50.4033V53.7065H103.137L103.056 53.8408C103.092 55.7028 103.414 57.3589 104.023 58.8091C104.65 60.2414 105.545 61.3693 106.708 62.1929C107.872 63.0164 109.269 63.4282 110.898 63.4282C112.688 63.4282 114.255 63.1776 115.598 62.6763C116.958 62.1571 118.131 61.4499 119.116 60.5547L121.184 63.9922C120.145 64.9948 118.767 65.8452 117.048 66.5435C115.347 67.2238 113.297 67.564 110.898 67.564ZM103.298 49.5708H116.699V48.8726C116.699 47.4761 116.448 46.2318 115.947 45.1396C115.463 44.0296 114.729 43.1613 113.745 42.5347C112.778 41.8901 111.56 41.5679 110.092 41.5679C108.911 41.5679 107.836 41.917 106.87 42.6152C105.903 43.2956 105.106 44.2266 104.479 45.4082C103.853 46.5898 103.441 47.9326 103.244 49.4365L103.298 49.5708ZM141.567 67.564C139.669 67.564 138.022 67.2059 136.625 66.4897C135.229 65.7557 134.065 64.6815 133.134 63.2671L132.651 67H128.085V29.2681L123.708 28.5161V25.1055H133.376V41.3799C134.289 40.0908 135.417 39.1061 136.76 38.4258C138.12 37.7454 139.705 37.4053 141.513 37.4053C143.912 37.4053 145.953 38.0588 147.636 39.3657C149.337 40.6548 150.635 42.472 151.53 44.8174C152.443 47.1628 152.9 49.8931 152.9 53.0083V53.5723C152.9 56.3652 152.443 58.8091 151.53 60.9038C150.635 62.9985 149.337 64.6367 147.636 65.8184C145.953 66.9821 143.93 67.564 141.567 67.564ZM140.224 63.2671C142.713 63.2671 144.557 62.3809 145.756 60.6084C146.974 58.8359 147.583 56.4906 147.583 53.5723V53.0083C147.583 50.7703 147.314 48.8099 146.777 47.127C146.24 45.4261 145.425 44.1012 144.333 43.1523C143.241 42.1855 141.853 41.7021 140.17 41.7021C138.541 41.7021 137.163 42.096 136.035 42.8838C134.925 43.6715 134.038 44.7279 133.376 46.0527V58.8896C134.038 60.2324 134.934 61.2977 136.062 62.0854C137.207 62.8732 138.595 63.2671 140.224 63.2671ZM171.215 67.564C168.53 67.564 166.193 66.9552 164.206 65.7378C162.219 64.5024 160.679 62.7926 159.587 60.6084C158.513 58.4242 157.976 55.8997 157.976 53.0352V51.8535C157.976 49.0964 158.54 46.6346 159.667 44.4683C160.813 42.284 162.326 40.5653 164.206 39.312C166.104 38.0409 168.172 37.4053 170.41 37.4053C173.024 37.4053 175.208 37.9424 176.962 39.0166C178.735 40.0908 180.069 41.6037 180.964 43.5552C181.859 45.4888 182.307 47.7715 182.307 50.4033V53.7065H163.454L163.374 53.8408C163.409 55.7028 163.732 57.3589 164.34 58.8091C164.967 60.2414 165.862 61.3693 167.026 62.1929C168.19 63.0164 169.586 63.4282 171.215 63.4282C173.006 63.4282 174.572 63.1776 175.915 62.6763C177.276 62.1571 178.448 61.4499 179.433 60.5547L181.501 63.9922C180.463 64.9948 179.084 65.8452 177.365 66.5435C175.664 67.2238 173.614 67.564 171.215 67.564ZM163.615 49.5708H177.016V48.8726C177.016 47.4761 176.765 46.2318 176.264 45.1396C175.781 44.0296 175.047 43.1613 174.062 42.5347C173.095 41.8901 171.878 41.5679 170.41 41.5679C169.228 41.5679 168.154 41.917 167.187 42.6152C166.22 43.2956 165.424 44.2266 164.797 45.4082C164.17 46.5898 163.758 47.9326 163.562 49.4365L163.615 49.5708Z" fill="#616161"/>
<path d="M185.683 87.5742L184.081 82.8496C186.964 81.8887 189.033 80.207 190.287 77.8047C191.542 75.429 192.169 72.4795 192.169 68.9561V60.748C192.169 57.8919 192.77 55.3962 193.971 53.2607C195.172 51.1253 197.027 49.4837 199.536 48.3359C197.027 47.2415 195.172 45.6266 193.971 43.4912C192.77 41.3558 192.169 38.8333 192.169 35.9238V27.6758C192.169 24.1523 191.542 21.1895 190.287 18.7871C189.033 16.3581 186.964 14.6764 184.081 13.7422L185.683 9.05762C190.861 10.5257 194.545 12.8613 196.733 16.0645C198.949 19.2409 200.057 23.1113 200.057 27.6758V35.9238C200.057 38.9401 200.737 41.2757 202.099 42.9307C203.46 44.5589 205.569 45.373 208.425 45.373V51.2588C205.569 51.2588 203.46 52.0996 202.099 53.7812C200.737 55.4362 200.057 57.7585 200.057 60.748V68.9561C200.057 73.4938 198.949 77.3643 196.733 80.5674C194.545 83.7705 190.861 86.1061 185.683 87.5742Z" fill="#F37726"/>
<path d="M36.5859 104.164C35.9557 104.164 35.3828 104.039 34.8672 103.789C34.3568 103.539 33.9453 103.161 33.6328 102.656C33.3255 102.151 33.1562 101.518 33.125 100.758L33.1406 100.711H34.6172C34.638 101.477 34.8125 102.039 35.1406 102.398C35.474 102.758 35.9479 102.938 36.5625 102.938C36.9948 102.938 37.349 102.846 37.625 102.664C37.901 102.477 38.1042 102.221 38.2344 101.898C38.3698 101.57 38.4375 101.195 38.4375 100.773V93.8359L36.9219 93.6328V92.625H41.25V93.6172L39.9766 93.8359V100.773C39.9766 101.451 39.8464 102.044 39.5859 102.555C39.3307 103.065 38.9505 103.461 38.4453 103.742C37.9453 104.023 37.3255 104.164 36.5859 104.164ZM46.0938 104.164C45.1771 104.164 44.4609 103.87 43.9453 103.281C43.4297 102.693 43.1719 101.776 43.1719 100.531V96.7578L42.2031 96.5391V95.5469H43.1719H44.7109V100.547C44.7109 101.448 44.8438 102.068 45.1094 102.406C45.375 102.745 45.7891 102.914 46.3516 102.914C46.8984 102.914 47.349 102.805 47.7031 102.586C48.0625 102.362 48.3333 102.047 48.5156 101.641V96.7578L47.3828 96.5391V95.5469H48.5156H50.0547V102.797L51.0234 103.016V104H48.6719L48.5703 102.75C48.3047 103.203 47.9609 103.552 47.5391 103.797C47.1224 104.042 46.6406 104.164 46.0938 104.164ZM51.875 107.25V106.258L53.0703 106.039V96.7578L51.7969 96.5391V95.5469H54.3906L54.5312 96.5781C54.8125 96.1927 55.1536 95.8984 55.5547 95.6953C55.9609 95.4922 56.4297 95.3906 56.9609 95.3906C57.6589 95.3906 58.2552 95.5807 58.75 95.9609C59.2448 96.3359 59.6224 96.8646 59.8828 97.5469C60.1432 98.224 60.2734 99.0182 60.2734 99.9297V100.094C60.2734 100.906 60.1406 101.617 59.875 102.227C59.6146 102.836 59.2396 103.312 58.75 103.656C58.2604 103.995 57.6719 104.164 56.9844 104.164C56.4635 104.164 56.0052 104.078 55.6094 103.906C55.2188 103.729 54.8854 103.469 54.6094 103.125V106.039L55.9531 106.258V107.25H51.875ZM56.5078 102.961C57.237 102.961 57.7891 102.695 58.1641 102.164C58.5391 101.633 58.7266 100.943 58.7266 100.094V99.9297C58.7266 99.2839 58.6432 98.7161 58.4766 98.2266C58.3099 97.7318 58.0599 97.3438 57.7266 97.0625C57.3984 96.7812 56.987 96.6406 56.4922 96.6406C56.0547 96.6406 55.6797 96.7396 55.3672 96.9375C55.0547 97.1354 54.8021 97.4062 54.6094 97.75V101.867C54.8021 102.216 55.0521 102.487 55.3594 102.68C55.6719 102.867 56.0547 102.961 56.5078 102.961ZM63.1484 107.414C63.0286 107.414 62.8724 107.398 62.6797 107.367C62.487 107.341 62.3385 107.315 62.2344 107.289L62.3906 106.078C62.4792 106.089 62.6016 106.096 62.7578 106.102C62.9141 106.112 63.0208 106.117 63.0781 106.117C63.4062 106.117 63.6719 105.992 63.875 105.742C64.0833 105.492 64.276 105.151 64.4531 104.719L64.8203 103.828L61.8281 96.6641L60.9219 96.5391V95.5469H64.4688V96.5391L63.4453 96.6953L65.0938 100.922L65.4922 102.023H65.5391L67.4922 96.6953L66.4141 96.5391V95.5469H69.8906V96.5391L69.0156 96.6641L65.6875 105.297C65.5312 105.703 65.3411 106.065 65.1172 106.383C64.8984 106.706 64.6276 106.958 64.3047 107.141C63.987 107.323 63.6016 107.414 63.1484 107.414ZM74 104.133C73.375 104.133 72.8776 103.951 72.5078 103.586C72.1432 103.216 71.9609 102.628 71.9609 101.82V96.6875H70.625V95.5469H71.9609V93.5078H73.5V95.5469H75.3359V96.6875H73.5V101.82C73.5 102.227 73.5807 102.526 73.7422 102.719C73.9036 102.911 74.1198 103.008 74.3906 103.008C74.5729 103.008 74.776 102.992 75 102.961C75.224 102.924 75.3984 102.893 75.5234 102.867L75.7344 103.875C75.5104 103.943 75.2344 104.003 74.9062 104.055C74.5833 104.107 74.2812 104.133 74 104.133ZM80.4141 104.164C79.6328 104.164 78.9531 103.987 78.375 103.633C77.7969 103.273 77.349 102.776 77.0312 102.141C76.7188 101.505 76.5625 100.771 76.5625 99.9375V99.5938C76.5625 98.7917 76.7266 98.0755 77.0547 97.4453C77.388 96.8099 77.8281 96.3099 78.375 95.9453C78.9271 95.5755 79.5286 95.3906 80.1797 95.3906C80.9401 95.3906 81.5755 95.5469 82.0859 95.8594C82.6016 96.1719 82.9896 96.612 83.25 97.1797C83.5104 97.7422 83.6406 98.4062 83.6406 99.1719V100.133H78.1562L78.1328 100.172C78.1432 100.714 78.237 101.195 78.4141 101.617C78.5964 102.034 78.8568 102.362 79.1953 102.602C79.5339 102.841 79.9401 102.961 80.4141 102.961C80.9349 102.961 81.3906 102.888 81.7812 102.742C82.1771 102.591 82.5182 102.385 82.8047 102.125L83.4062 103.125C83.1042 103.417 82.7031 103.664 82.2031 103.867C81.7083 104.065 81.112 104.164 80.4141 104.164ZM78.2031 98.9297H82.1016V98.7266C82.1016 98.3203 82.0286 97.9583 81.8828 97.6406C81.7422 97.3177 81.5286 97.0651 81.2422 96.8828C80.9609 96.6953 80.6068 96.6016 80.1797 96.6016C79.8359 96.6016 79.5234 96.7031 79.2422 96.9062C78.9609 97.1042 78.7292 97.375 78.5469 97.7188C78.3646 98.0625 78.2448 98.4531 78.1875 98.8906L78.2031 98.9297ZM84.8281 104V103.016L86.1016 102.797V96.7578L84.8281 96.5391V95.5469H87.4766L87.6094 96.625L87.625 96.7734C87.8646 96.3411 88.1589 96.0026 88.5078 95.7578C88.862 95.513 89.2656 95.3906 89.7188 95.3906C89.8802 95.3906 90.0443 95.4062 90.2109 95.4375C90.3828 95.4635 90.5052 95.4896 90.5781 95.5156L90.375 96.9453L89.3047 96.8828C88.8984 96.8568 88.5573 96.9505 88.2812 97.1641C88.0052 97.3724 87.7917 97.6536 87.6406 98.0078V102.797L88.9141 103.016V104H84.8281ZM95.4688 104V103.016L96.3125 102.898L100.289 92.625H101.609L105.516 102.898L106.352 103.016V104H103.086V103.016L103.945 102.867L103.195 100.773H98.6406L97.8672 102.867L98.7266 103.016V104H95.4688ZM99.1172 99.4844H102.727L101.055 94.8594L100.961 94.6016H100.914L100.82 94.8594L99.1172 99.4844ZM107.484 104V103.016L108.758 102.797V96.7578L107.484 96.5391V95.5469H110.133L110.242 96.8047C110.523 96.3568 110.875 96.0104 111.297 95.7656C111.724 95.5156 112.208 95.3906 112.75 95.3906C113.661 95.3906 114.367 95.6589 114.867 96.1953C115.367 96.7266 115.617 97.5495 115.617 98.6641V102.797L116.891 103.016V104H112.805V103.016L114.078 102.797V98.6953C114.078 97.9505 113.93 97.4219 113.633 97.1094C113.341 96.7969 112.893 96.6406 112.289 96.6406C111.846 96.6406 111.453 96.7474 111.109 96.9609C110.771 97.1745 110.5 97.4661 110.297 97.8359V102.797L111.57 103.016V104H107.484ZM119.117 107.414C118.997 107.414 118.841 107.398 118.648 107.367C118.456 107.341 118.307 107.315 118.203 107.289L118.359 106.078C118.448 106.089 118.57 106.096 118.727 106.102C118.883 106.112 118.99 106.117 119.047 106.117C119.375 106.117 119.641 105.992 119.844 105.742C120.052 105.492 120.245 105.151 120.422 104.719L120.789 103.828L117.797 96.6641L116.891 96.5391V95.5469H120.438V96.5391L119.414 96.6953L121.062 100.922L121.461 102.023H121.508L123.461 96.6953L122.383 96.5391V95.5469H125.859V96.5391L124.984 96.6641L121.656 105.297C121.5 105.703 121.31 106.065 121.086 106.383C120.867 106.706 120.596 106.958 120.273 107.141C119.956 107.323 119.57 107.414 119.117 107.414ZM129.594 104L127.367 96.6484L126.422 96.5391V95.5469H129.914V96.5391L128.875 96.7109L130.039 100.922L130.305 101.922H130.352L130.695 100.922L132.531 95.5469H133.828L135.578 100.906L135.953 102.094H136L136.367 100.906L137.547 96.7031L136.484 96.5391V95.5469H139.898V96.5391L138.961 96.6719L136.773 104H135.312L133.602 98.9219L133.195 97.5625L133.148 97.5703L132.75 98.9219L130.914 104H129.594ZM140.492 104V103.016L141.766 102.797V93.0234L140.492 92.8047V91.8125H143.305V96.6719C143.596 96.2656 143.953 95.9505 144.375 95.7266C144.797 95.5026 145.266 95.3906 145.781 95.3906C146.688 95.3906 147.391 95.6615 147.891 96.2031C148.391 96.7448 148.641 97.5781 148.641 98.7031V102.797L149.914 103.016V104H145.828V103.016L147.102 102.797V98.6875C147.102 97.9896 146.951 97.474 146.648 97.1406C146.352 96.8073 145.906 96.6406 145.312 96.6406C144.891 96.6406 144.505 96.7422 144.156 96.9453C143.812 97.1432 143.529 97.4141 143.305 97.7578V102.797L144.578 103.016V104H140.492ZM154.695 104.164C153.914 104.164 153.234 103.987 152.656 103.633C152.078 103.273 151.63 102.776 151.312 102.141C151 101.505 150.844 100.771 150.844 99.9375V99.5938C150.844 98.7917 151.008 98.0755 151.336 97.4453C151.669 96.8099 152.109 96.3099 152.656 95.9453C153.208 95.5755 153.81 95.3906 154.461 95.3906C155.221 95.3906 155.857 95.5469 156.367 95.8594C156.883 96.1719 157.271 96.612 157.531 97.1797C157.792 97.7422 157.922 98.4062 157.922 99.1719V100.133H152.438L152.414 100.172C152.424 100.714 152.518 101.195 152.695 101.617C152.878 102.034 153.138 102.362 153.477 102.602C153.815 102.841 154.221 102.961 154.695 102.961C155.216 102.961 155.672 102.888 156.062 102.742C156.458 102.591 156.799 102.385 157.086 102.125L157.688 103.125C157.385 103.417 156.984 103.664 156.484 103.867C155.99 104.065 155.393 104.164 154.695 104.164ZM152.484 98.9297H156.383V98.7266C156.383 98.3203 156.31 97.9583 156.164 97.6406C156.023 97.3177 155.81 97.0651 155.523 96.8828C155.242 96.6953 154.888 96.6016 154.461 96.6016C154.117 96.6016 153.805 96.7031 153.523 96.9062C153.242 97.1042 153.01 97.375 152.828 97.7188C152.646 98.0625 152.526 98.4531 152.469 98.8906L152.484 98.9297ZM159.109 104V103.016L160.383 102.797V96.7578L159.109 96.5391V95.5469H161.758L161.891 96.625L161.906 96.7734C162.146 96.3411 162.44 96.0026 162.789 95.7578C163.143 95.513 163.547 95.3906 164 95.3906C164.161 95.3906 164.326 95.4062 164.492 95.4375C164.664 95.4635 164.786 95.4896 164.859 95.5156L164.656 96.9453L163.586 96.8828C163.18 96.8568 162.839 96.9505 162.562 97.1641C162.286 97.3724 162.073 97.6536 161.922 98.0078V102.797L163.195 103.016V104H159.109ZM169.492 104.164C168.711 104.164 168.031 103.987 167.453 103.633C166.875 103.273 166.427 102.776 166.109 102.141C165.797 101.505 165.641 100.771 165.641 99.9375V99.5938C165.641 98.7917 165.805 98.0755 166.133 97.4453C166.466 96.8099 166.906 96.3099 167.453 95.9453C168.005 95.5755 168.607 95.3906 169.258 95.3906C170.018 95.3906 170.654 95.5469 171.164 95.8594C171.68 96.1719 172.068 96.612 172.328 97.1797C172.589 97.7422 172.719 98.4062 172.719 99.1719V100.133H167.234L167.211 100.172C167.221 100.714 167.315 101.195 167.492 101.617C167.674 102.034 167.935 102.362 168.273 102.602C168.612 102.841 169.018 102.961 169.492 102.961C170.013 102.961 170.469 102.888 170.859 102.742C171.255 102.591 171.596 102.385 171.883 102.125L172.484 103.125C172.182 103.417 171.781 103.664 171.281 103.867C170.786 104.065 170.19 104.164 169.492 104.164ZM167.281 98.9297H171.18V98.7266C171.18 98.3203 171.107 97.9583 170.961 97.6406C170.82 97.3177 170.607 97.0651 170.32 96.8828C170.039 96.6953 169.685 96.6016 169.258 96.6016C168.914 96.6016 168.602 96.7031 168.32 96.9062C168.039 97.1042 167.807 97.375 167.625 97.7188C167.443 98.0625 167.323 98.4531 167.266 98.8906L167.281 98.9297Z" fill="#616161"/>
</svg>
