<?xml version="1.0" encoding="UTF-8"?>
<svg width="700pt" height="700pt" version="1.1" viewBox="0 0 700 700" xmlns="http://www.w3.org/2000/svg" xmlns:xlink="http://www.w3.org/1999/xlink">
 <defs>
  <symbol id="q" overflow="visible">
   <path d="m29.312-1.75c-1.5117 0.78125-3.0898 1.3711-4.7344 1.7656-1.6367 0.40625-3.3398 0.60938-5.1094 0.60938-5.3125 0-9.5273-1.4844-12.641-4.4531-3.1055-2.9688-4.6562-7-4.6562-12.094s1.5508-9.125 4.6562-12.094c3.1133-2.9688 7.3281-4.4531 12.641-4.4531 1.7695 0 3.4727 0.19922 5.1094 0.59375 1.6445 0.39844 3.2227 0.99219 4.7344 1.7812v6.5938c-1.5312-1.0391-3.0391-1.8008-4.5156-2.2812-1.4805-0.48828-3.0391-0.73438-4.6719-0.73438-2.9375 0-5.2461 0.94531-6.9219 2.8281-1.6797 1.875-2.5156 4.4648-2.5156 7.7656 0 3.293 0.83594 5.8828 2.5156 7.7656 1.6758 1.875 3.9844 2.8125 6.9219 2.8125 1.6328 0 3.1914-0.23828 4.6719-0.71875 1.4766-0.48828 2.9844-1.2539 4.5156-2.2969z"/>
  </symbol>
  <symbol id="d" overflow="visible">
   <path d="m21.453-17.406c-0.67969-0.3125-1.3516-0.53906-2.0156-0.6875-0.65625-0.15625-1.3203-0.23438-1.9844-0.23438-1.9688 0-3.4844 0.63281-4.5469 1.8906-1.0547 1.2617-1.5781 3.0703-1.5781 5.4219v11.016h-7.6562v-23.922h7.6562v3.9219c0.97656-1.5625 2.1016-2.7031 3.375-3.4219 1.2812-0.71875 2.8125-1.0781 4.5938-1.0781 0.25 0 0.52344 0.011719 0.82812 0.03125 0.30078 0.023438 0.73438 0.070312 1.2969 0.14062z"/>
  </symbol>
  <symbol id="a" overflow="visible">
   <path d="m27.562-12.031v2.1875h-17.891c0.1875 1.793 0.83203 3.1367 1.9375 4.0312 1.1133 0.89844 2.6719 1.3438 4.6719 1.3438 1.6016 0 3.25-0.23438 4.9375-0.70312 1.6875-0.47656 3.4219-1.2031 5.2031-2.1719v5.8906c-1.8047 0.6875-3.6094 1.2031-5.4219 1.5469-1.8125 0.35156-3.6211 0.53125-5.4219 0.53125-4.3359 0-7.7031-1.0977-10.109-3.2969-2.3984-2.207-3.5938-5.2969-3.5938-9.2656 0-3.9062 1.1758-6.9727 3.5312-9.2031 2.3633-2.2383 5.6094-3.3594 9.7344-3.3594 3.7578 0 6.7695 1.1367 9.0312 3.4062 2.2578 2.2617 3.3906 5.2812 3.3906 9.0625zm-7.8594-2.5312c0-1.457-0.42969-2.6289-1.2812-3.5156-0.84375-0.89453-1.9492-1.3438-3.3125-1.3438-1.4922 0-2.6992 0.41797-3.625 1.25-0.91797 0.83594-1.4922 2.0391-1.7188 3.6094z"/>
  </symbol>
  <symbol id="c" overflow="visible">
   <path d="m14.391-10.766c-1.5938 0-2.793 0.27344-3.5938 0.8125-0.80469 0.54297-1.2031 1.3398-1.2031 2.3906 0 0.96875 0.32031 1.7305 0.96875 2.2812 0.64453 0.54297 1.5469 0.8125 2.7031 0.8125 1.4375 0 2.6445-0.51562 3.625-1.5469 0.98828-1.0312 1.4844-2.3203 1.4844-3.875v-0.875zm11.688-2.8906v13.656h-7.7031v-3.5469c-1.0312 1.4492-2.1875 2.5078-3.4688 3.1719s-2.8398 1-4.6719 1c-2.4805 0-4.4961-0.72266-6.0469-2.1719-1.543-1.4453-2.3125-3.3203-2.3125-5.625 0-2.8125 0.96094-4.8672 2.8906-6.1719 1.9375-1.3125 4.9688-1.9688 9.0938-1.9688h4.5156v-0.60938c0-1.207-0.48047-2.0938-1.4375-2.6562-0.94922-0.5625-2.4375-0.84375-4.4688-0.84375-1.6367 0-3.1562 0.16797-4.5625 0.5-1.4062 0.32422-2.7188 0.8125-3.9375 1.4688v-5.8281c1.6445-0.40625 3.2891-0.70703 4.9375-0.90625 1.6562-0.20703 3.3047-0.3125 4.9531-0.3125 4.3203 0 7.4375 0.85547 9.3438 2.5625 1.9141 1.6992 2.875 4.4609 2.875 8.2812z"/>
  </symbol>
  <symbol id="b" overflow="visible">
   <path d="m12.031-30.719v6.7969h7.875v5.4688h-7.875v10.141c0 1.1172 0.21875 1.8711 0.65625 2.2656 0.4375 0.38672 1.3125 0.57812 2.625 0.57812h3.9375v5.4688h-6.5625c-3.0234 0-5.1641-0.62891-6.4219-1.8906-1.2617-1.2578-1.8906-3.3984-1.8906-6.4219v-10.141h-3.7969v-5.4688h3.7969v-6.7969z"/>
  </symbol>
  <symbol id="h" overflow="visible">
   <path d="m19.953-20.422v-12.812h7.6875v33.234h-7.6875v-3.4531c-1.0547 1.4062-2.2148 2.4375-3.4844 3.0938-1.2734 0.65625-2.7422 0.98438-4.4062 0.98438-2.9492 0-5.3711-1.1719-7.2656-3.5156-1.8867-2.3438-2.8281-5.3594-2.8281-9.0469s0.94141-6.7031 2.8281-9.0469c1.8945-2.3438 4.3164-3.5156 7.2656-3.5156 1.6562 0 3.1172 0.33594 4.3906 1 1.2812 0.65625 2.4453 1.6836 3.5 3.0781zm-5.0469 15.484c1.6445 0 2.8945-0.59766 3.75-1.7969 0.86328-1.1953 1.2969-2.9297 1.2969-5.2031 0-2.2812-0.43359-4.0195-1.2969-5.2188-0.85547-1.1953-2.1055-1.7969-3.75-1.7969-1.625 0-2.8711 0.60156-3.7344 1.7969-0.85547 1.1992-1.2812 2.9375-1.2812 5.2188 0 2.2734 0.42578 4.0078 1.2812 5.2031 0.86328 1.1992 2.1094 1.7969 3.7344 1.7969z"/>
  </symbol>
  <symbol id="g" overflow="visible">
   <path d="m16.406-4.9375c1.6328 0 2.8828-0.59766 3.75-1.7969 0.86328-1.1953 1.2969-2.9297 1.2969-5.2031 0-2.2812-0.43359-4.0195-1.2969-5.2188-0.86719-1.1953-2.1172-1.7969-3.75-1.7969-1.6367 0-2.8906 0.60547-3.7656 1.8125-0.875 1.1992-1.3125 2.9336-1.3125 5.2031 0 2.2617 0.4375 3.9961 1.3125 5.2031 0.875 1.1992 2.1289 1.7969 3.7656 1.7969zm-5.0781-15.484c1.0508-1.3945 2.2188-2.4219 3.5-3.0781 1.2812-0.66406 2.7539-1 4.4219-1 2.9453 0 5.3672 1.1719 7.2656 3.5156 1.8945 2.3438 2.8438 5.3594 2.8438 9.0469s-0.94922 6.7031-2.8438 9.0469c-1.8984 2.3438-4.3203 3.5156-7.2656 3.5156-1.668 0-3.1406-0.33594-4.4219-1s-2.4492-1.6914-3.5-3.0781v3.4531h-7.6562v-33.234h7.6562z"/>
  </symbol>
  <symbol id="f" overflow="visible">
   <path d="m0.53125-23.922h7.6562l6.4219 16.234 5.4688-16.234h7.6562l-10.062 26.188c-1.0117 2.6641-2.1953 4.5234-3.5469 5.5781-1.3438 1.0625-3.1211 1.5938-5.3281 1.5938h-4.4219v-5.0156h2.3906c1.3008 0 2.2422-0.21094 2.8281-0.625 0.59375-0.40625 1.0547-1.1484 1.3906-2.2188l0.20312-0.65625z"/>
  </symbol>
  <symbol id="e" overflow="visible">
   <path d="m15.703-17.75c1.7188 0 2.9531-0.31641 3.7031-0.95312 0.75-0.64453 1.125-1.7031 1.125-3.1719 0-1.4453-0.375-2.4844-1.125-3.1094-0.75-0.63281-1.9844-0.95312-3.7031-0.95312h-3.4688v8.1875zm-3.4688 5.6875v12.062h-8.2188v-31.891h12.562c4.1953 0 7.2734 0.70312 9.2344 2.1094 1.957 1.4062 2.9375 3.6367 2.9375 6.6875 0 2.1055-0.51172 3.8359-1.5312 5.1875-1.0117 1.3555-2.543 2.3555-4.5938 3 1.125 0.25 2.1289 0.82812 3.0156 1.7344 0.89453 0.90625 1.7969 2.2773 2.7031 4.1094l4.4688 9.0625h-8.7656l-3.875-7.9219c-0.79297-1.5938-1.5898-2.6797-2.3906-3.2656-0.80469-0.58203-1.875-0.875-3.2188-0.875z"/>
  </symbol>
  <symbol id="p" overflow="visible">
   <path d="m3.6719-33.234h7.6562v33.234h-7.6562z"/>
  </symbol>
  <symbol id="o" overflow="visible">
   <path d="m19.422-33.234v5.0156h-4.2344c-1.0859 0-1.8398 0.19922-2.2656 0.59375-0.42969 0.38672-0.64062 1.0625-0.64062 2.0312v1.6719h6.5312v5.4688h-6.5312v18.453h-7.6406v-18.453h-3.8125v-5.4688h3.8125v-1.6719c0-2.6016 0.72266-4.5234 2.1719-5.7656 1.457-1.25 3.707-1.875 6.75-1.875z"/>
  </symbol>
  <symbol id="n" overflow="visible">
   <path d="m26.219-30.891v6.75c-1.7617-0.78125-3.4766-1.3672-5.1406-1.7656-1.668-0.40625-3.2422-0.60938-4.7188-0.60938-1.9609 0-3.4141 0.27344-4.3594 0.8125-0.9375 0.54297-1.4062 1.3867-1.4062 2.5312 0 0.85547 0.31641 1.5234 0.95312 2 0.63281 0.46875 1.7852 0.875 3.4531 1.2188l3.5 0.70312c3.5391 0.71875 6.0625 1.8047 7.5625 3.25 1.5 1.4492 2.25 3.5117 2.25 6.1875 0 3.5234-1.0469 6.1406-3.1406 7.8594-2.0859 1.7188-5.2734 2.5781-9.5625 2.5781-2.0234 0-4.0547-0.19531-6.0938-0.57812-2.0312-0.38281-4.0625-0.95703-6.0938-1.7188v-6.9375c2.0312 1.0859 3.9922 1.9023 5.8906 2.4531 1.9062 0.54297 3.7422 0.8125 5.5156 0.8125 1.7891 0 3.1602-0.29688 4.1094-0.89062 0.95703-0.60156 1.4375-1.457 1.4375-2.5625 0-1-0.32422-1.7695-0.96875-2.3125-0.64844-0.53906-1.9375-1.0234-3.875-1.4531l-3.1875-0.70312c-3.1875-0.6875-5.5234-1.7734-7-3.2656-1.4688-1.5-2.2031-3.5156-2.2031-6.0469 0-3.1758 1.0234-5.6172 3.0781-7.3281 2.0508-1.707 5-2.5625 8.8438-2.5625 1.75 0 3.5508 0.13281 5.4062 0.39062 1.8516 0.26172 3.7695 0.65625 5.75 1.1875z"/>
  </symbol>
  <symbol id="m" overflow="visible">
   <path d="m23-23.172v6.2344c-1.0312-0.71875-2.0742-1.2422-3.125-1.5781-1.043-0.34375-2.125-0.51562-3.25-0.51562-2.1367 0-3.8047 0.625-5 1.875-1.1875 1.2422-1.7812 2.9805-1.7812 5.2188 0 2.2305 0.59375 3.9688 1.7812 5.2188 1.1953 1.25 2.8633 1.875 5 1.875 1.1953 0 2.332-0.17578 3.4062-0.53125 1.0703-0.36328 2.0625-0.89453 2.9688-1.5938v6.2656c-1.1875 0.4375-2.4023 0.76562-3.6406 0.98438-1.2305 0.22656-2.4648 0.34375-3.7031 0.34375-4.3125 0-7.6875-1.1094-10.125-3.3281s-3.6562-5.2969-3.6562-9.2344c0-3.9453 1.2188-7.0234 3.6562-9.2344 2.4375-2.2188 5.8125-3.3281 10.125-3.3281 1.25 0 2.4844 0.10938 3.7031 0.32812s2.4297 0.55469 3.6406 1z"/>
  </symbol>
  <symbol id="l" overflow="visible">
   <path d="m27.734-14.562v14.562h-7.7031v-11.109c0-2.0938-0.046875-3.5312-0.14062-4.3125-0.085937-0.78125-0.24219-1.3594-0.46875-1.7344-0.30469-0.5-0.71094-0.88281-1.2188-1.1562-0.51172-0.28125-1.0938-0.42188-1.75-0.42188-1.5938 0-2.8516 0.61719-3.7656 1.8438-0.90625 1.2305-1.3594 2.9375-1.3594 5.125v11.766h-7.6562v-33.234h7.6562v12.812c1.1445-1.3945 2.3633-2.4219 3.6562-3.0781 1.3008-0.66406 2.7383-1 4.3125-1 2.7578 0 4.8516 0.85156 6.2812 2.5469 1.4375 1.6875 2.1562 4.1523 2.1562 7.3906z"/>
  </symbol>
  <symbol id="k" overflow="visible">
   <path d="m25.844-19.953c0.96875-1.4766 2.1172-2.6016 3.4531-3.375 1.332-0.78125 2.7969-1.1719 4.3906-1.1719 2.75 0 4.8438 0.85156 6.2812 2.5469 1.4375 1.6875 2.1562 4.1523 2.1562 7.3906v14.562h-7.6875v-12.469c0.007812-0.1875 0.019531-0.37891 0.03125-0.57812 0.007812-0.19531 0.015625-0.48438 0.015625-0.85938 0-1.6953-0.25-2.9258-0.75-3.6875-0.5-0.75781-1.3086-1.1406-2.4219-1.1406-1.4492 0-2.5703 0.60156-3.3594 1.7969-0.79297 1.1992-1.2031 2.9297-1.2344 5.1875v11.75h-7.6875v-12.469c0-2.6562-0.23047-4.3633-0.6875-5.125-0.44922-0.75781-1.2578-1.1406-2.4219-1.1406-1.4688 0-2.6055 0.60547-3.4062 1.8125-0.79297 1.1992-1.1875 2.918-1.1875 5.1562v11.766h-7.7031v-23.922h7.7031v3.5c0.9375-1.3516 2.0156-2.3672 3.2344-3.0469 1.2188-0.6875 2.5547-1.0312 4.0156-1.0312 1.6562 0 3.1133 0.40234 4.375 1.2031 1.2695 0.79297 2.2344 1.9062 2.8906 3.3438z"/>
  </symbol>
  <symbol id="j" overflow="visible">
   <path d="m3.6719-23.922h7.6562v23.922h-7.6562zm0-9.3125h7.6562v6.2344h-7.6562z"/>
  </symbol>
  <symbol id="i" overflow="visible">
   <path d="m2.5-23.922h20.875v5.3438l-12.609 13.109h12.609v5.4688h-21.406v-5.3438l12.594-13.109h-12.062z"/>
  </symbol>
 </defs>
 <g>
  <path d="m462.23 131.9c7.707 22.785 37.082 17.289 52.5 16.801 11.848-7.9453 10.684-33.785 6.3008-42-19.301-36.199-69.098-5.2148-58.801 25.199zm21.008-6.3008c2.3711-6.5898-0.60547-5.5469 2.0898-10.5h6.3086c0.54688 6.8516-2.5 10.113-8.3984 10.5z" fill-rule="evenodd"/>
  <path d="m245.93 243.2c-31.289 2.3555-58.355 4.375-92.398 4.1992-3.3086 5.7852-12.004 6.1953-10.5 16.801 4.6992 4.2266 2.6328 6.8672 8.3984 12.602 48.973-3.9805 90.273-2.8594 136.5-8.3984v-12.602c-14.219-6.4414-34.824-1.8242-42-12.602z" fill-rule="evenodd"/>
  <path d="m514.73 306.2c11.848-7.9453 10.684-33.785 6.3008-42-19.301-36.199-69.09-5.2148-58.801 25.199 7.7109 22.785 37.082 17.297 52.5 16.801zm-29.398-33.602h6.3086c0.54297 6.8516-2.4922 10.105-8.3984 10.5 2.3711-6.5898-0.61328-5.5469 2.0898-10.5z" fill-rule="evenodd"/>
  <path d="m245.93 400.7c-31.289 2.3633-58.355 4.3828-92.398 4.1992-3.3086 5.7852-12.004 6.1953-10.5 16.801 4.6992 4.2266 2.6328 6.8672 8.3984 12.602 48.973-3.9805 90.273-2.8594 136.5-8.3984v-12.602c-14.219-6.4414-34.824-1.8242-42-12.602z" fill-rule="evenodd"/>
  <path d="m462.23 446.9c7.707 22.785 37.082 17.297 52.5 16.801 11.848-7.9453 10.684-33.785 6.3008-42-19.301-36.199-69.098-5.207-58.801 25.199zm21.008-6.3008c2.3711-6.5977-0.60547-5.5469 2.0898-10.5h6.3086c0.54688 6.8516-2.5 10.113-8.3984 10.5z" fill-rule="evenodd"/>
  <path d="m374.83 83.902c-0.95312-0.10547-1.9688-0.18359-2.9062-0.30469 1.4531 0.45312 2.293 0.45312 2.9062 0.30469z" fill-rule="evenodd"/>
  <path d="m584.03 377.6c-70.051-6.2461-154.66 2.0469-224.7-4.1914 1.0586-15.008-1.5234-24.367 4.1914-31.508 75.418 0.76172 144.63 3.7344 220.5-2.1016 3.4844-35.086 3.4844-84.605 0-119.7-70.07-6.2227-154.63 2.0312-224.7-4.1992 1.3555-9.8438-2.7461-25.148 2.0898-31.5 73.508-1.3906 152.58 2.7812 222.6-2.1016 4.5312-37.414 6.5625-85.086 0-121.8-85.297-4.1641-185.09-5.9766-268.8-2.1016 1.7656-4.5312 10.824-1.7773 12.602-6.3008-12.738 1.3555-27.492 9.1094-35.699-2.1016h-33.602c14.551 3.8867-19.066 9.8438-27.301 6.3008-8.7773-3.7812 26.688 0.38672 8.3984-6.3008h-8.3984c-28.234 3.9023-56.594 10.57-81.898 0h-2.1016c-19.383 3.8203-38.188 2.9609-44.082 16.805v6.3008c5.3281 4.8477 3.0195 9.3633 2.1016 16.801h-2.1016v33.602c9.1094 15.855-6.9375 56.289 12.602 69.301 39.297-0.15625 70.672-2.9297 105-6.3008 0.35938 4.5586-7.4453 0.95312-10.5 2.1016 35.133 7.4375 82.949 2.082 123.9 4.1992-0.91797 7.2188 0.83203 11.77 2.1016 16.801-45.402 0.80469-99.297 4.1484-149.1 4.1992-29.285 0.027344-59.176-10.23-79.801 6.3008-1.1094 42.027 2.7109 76.895 0 115.5 12.738 19.625 37.371 11.191 56.699 10.5 55.605-2.0039 117.19 3.2891 172.2 0 1.4102 10.508-1.9531 16.25-2.1016 25.199-70.859 0.35156-142-2.5625-220.5 2.1016-6.6484 12.484-9.082 86.512-6.3008 113.4 1.5742 15.207 15.766 17.457 23.102 18.891h14.699c159.83-5.3555 289.62-1.9531 438.9-8.3984 8.3438-32.309 4.6602-86.594 0.003906-119.7zm-451.5-212.09c-3.4727-23.379-1.4883-54.863-2.1016-86.102 46.41 0.59375 73.027 4.6016 111.3 4.1992-10.824 10.203-71.707 0.86719-86.102 6.3008-14.988 5.6602-14.613 19.906-4.1992 29.398 48.973-3.9805 90.273-2.8594 136.5-8.3984v-10.5c-8.8477-10.473-52.516-3.6211-35.699-18.898 6.957 2.0469-2.3438 4.1484-2.1016 6.3008 5.5312 0.54297 6.8945 4.332 6.3008-4.1992 6.4922 11.438 13.957 2.668 23.102 0-0.52344 2.2852-4.1836 1.4258-4.1992 4.1992 4.5664-1.1992 16.055 2.6406 18.898-6.3008 2.457 0.33984 1.7773 3.832 2.1016 6.3008 32.953-1.4883 47.066 4.5234 75.602-6.3008-0.027344-5.1875 6.0547 1.6367 2.9062 2.3984 56.84 6.3945 141.71-0.55859 188.2-0.30469-0.35938 23.809 1.6992 52.684 0 75.602-116.55 7.4688-273.37 5.9531-430.5 6.3047zm4.1992 153.3c0.36719-23.816-1.6992-52.684 0-75.602 117.26-7.1758 265.17-6.0273 430.5-6.3008 3.875 23.781 1.2695 54.637 2.1016 86.102-36.723-2.2148-67.691-0.078125-92.41-6.3008-1.7852 0.38672-1.9844-0.82422-2.0898-2.1016-5.1016 7.6211-35.211 6.4844-42.008-2.0898-6.2812 0.22656-0.94531 7.7617-12.59 6.3008 0.52344-2.2852 4.1719-1.4258 4.1914-4.1992-5.1875 0.58594-15.156-1.7422-18.898 6.3086-3.0273-0.48047-0.72656-6.2734-4.1914-6.3086-63.625 1.3945-185.7 1.4453-264.61 4.1914zm432.6 161.69c-36.723-2.2148-67.691-0.078125-92.41-6.3008-1.7852 0.38672-1.9844-0.82422-2.0898-2.1016-5.1016 7.6211-35.211 6.4844-42.008-2.0898-6.2812 0.22656-0.94531 7.7617-12.59 6.3008 0.52344-2.2852 4.1719-1.4258 4.1914-4.1992-5.1875 0.58594-15.156-1.7422-18.898 6.3086-3.0273-0.48047-0.72656-6.2734-4.1914-6.3086-63.621 1.4102-185.7 1.4609-264.6 4.1992 0.36719-23.816-1.6992-52.684 0-75.609 117.26-7.1758 265.17-6.0195 430.5-6.3008 3.8828 23.793 1.2656 54.637 2.0977 86.102z" fill-rule="evenodd"/>
  <path d="m256.43 123.5c-0.44531 2.3633-2.3359 3.2734-4.1992 4.1992-5.3477-6.6758-1.7148-3.0547-8.3984-8.3984-20.23 9.8359-78.617-4.3125-100.8 14.699-1.6797 7.2891 3.125 8.0664 2.1016 14.699 15.312 13.23 33.59 1.5742 54.602 0 29.977-2.2383 55.125 6.2461 88.199-2.1016v-12.602c-8.4453-5.375-31.266-3.3984-31.504-10.496z" fill-rule="evenodd"/>
  <path d="m256.43 281c-0.44531 2.3633-2.3359 3.2734-4.1992 4.1992-5.3477-6.6758-1.7148-3.0547-8.3984-8.3984-20.23 9.8359-78.617-4.3125-100.8 14.699-1.6797 7.2812 3.125 8.0781 2.1016 14.699 15.312 13.23 33.59 1.5742 54.602 0 29.977-2.2383 55.125 6.2578 88.199-2.1016v-12.59c-8.4453-5.3867-31.266-3.4102-31.504-10.508z" fill-rule="evenodd"/>
  <path d="m256.43 438.5c-0.44531 2.3633-2.3359 3.2734-4.1992 4.1992-5.3477-6.6836-1.7148-3.0625-8.3984-8.3984-20.23 9.8281-78.617-4.3125-100.8 14.699-1.6797 7.2812 3.125 8.0781 2.1016 14.699 15.312 13.23 33.59 1.5742 54.602 0 29.977-2.2383 55.125 6.2578 88.199-2.1016v-12.59c-8.4453-5.3867-31.266-3.4023-31.504-10.508z" fill-rule="evenodd"/>
  <use x="70" y="691.25" xlink:href="#q"/>
  <use x="102.109375" y="691.25" xlink:href="#d"/>
  <use x="123.683594" y="691.25" xlink:href="#a"/>
  <use x="153.355469" y="691.25" xlink:href="#c"/>
  <use x="182.878906" y="691.25" xlink:href="#b"/>
  <use x="203.792969" y="691.25" xlink:href="#a"/>
  <use x="233.464844" y="691.25" xlink:href="#h"/>
  <use x="280.011719" y="691.25" xlink:href="#g"/>
  <use x="311.328125" y="691.25" xlink:href="#f"/>
  <use x="355.078125" y="691.25" xlink:href="#e"/>
  <use x="388.769531" y="691.25" xlink:href="#c"/>
  <use x="418.289062" y="691.25" xlink:href="#p"/>
  <use x="433.289062" y="691.25" xlink:href="#o"/>
  <use x="467.550781" y="691.25" xlink:href="#n"/>
  <use x="499.0625" y="691.25" xlink:href="#m"/>
  <use x="524.996094" y="691.25" xlink:href="#l"/>
  <use x="556.140625" y="691.25" xlink:href="#k"/>
  <use x="601.730469" y="691.25" xlink:href="#j"/>
  <use x="616.726562" y="691.25" xlink:href="#b"/>
  <use x="637.640625" y="691.25" xlink:href="#i"/>
  <use x="663.101562" y="691.25" xlink:href="#a"/>
  <use x="692.773438" y="691.25" xlink:href="#d"/>
 </g>
</svg>
