<svg width="128" height="128" viewBox="0 0 128 128" fill="none" xmlns="http://www.w3.org/2000/svg">
<rect width="128" height="128" rx="15" fill="white"/>
<path d="M58.384 52.488V55.336C58.2347 55.272 58.0533 55.2293 57.84 55.208C57.648 55.1653 57.4453 55.1333 57.232 55.112C57.0187 55.0907 56.816 55.08 56.624 55.08C56.048 55.08 55.5467 55.1653 55.12 55.336C54.6933 55.4853 54.3093 55.72 53.968 56.04C53.648 56.3387 53.3493 56.7333 53.072 57.224C52.816 57.7147 52.528 58.3013 52.208 58.984L52.176 56.968C52.496 56.0507 52.9013 55.2507 53.392 54.568C53.8827 53.8853 54.448 53.352 55.088 52.968C55.7493 52.584 56.4853 52.392 57.296 52.392C57.5093 52.392 57.712 52.4027 57.904 52.424C58.1173 52.424 58.2773 52.4453 58.384 52.488ZM47.216 69V67.592H47.248C48.016 67.592 48.6453 67.5173 49.136 67.368C49.6267 67.2187 49.872 66.9093 49.872 66.44V55.624C49.872 55.304 49.7867 55.0693 49.616 54.92C49.4453 54.7493 49.1787 54.6107 48.816 54.504C48.4747 54.3973 48.048 54.2907 47.536 54.184L47.216 54.12V52.712H52.432V57.384L52.72 57.096V66.568C52.72 66.888 52.8693 67.1227 53.168 67.272C53.4667 67.4213 53.8187 67.5173 54.224 67.56C54.6507 67.5813 55.024 67.592 55.344 67.592H55.888V69H47.216ZM63.1645 61C63.1645 62.024 63.2925 62.952 63.5485 63.784C63.8258 64.5947 64.2098 65.288 64.7005 65.864C65.2125 66.4187 65.7992 66.8453 66.4605 67.144C67.1218 67.4213 67.8365 67.56 68.6045 67.56C69.4792 67.56 70.2365 67.4 70.8765 67.08C71.5165 66.7387 72.0498 66.3227 72.4765 65.832C72.9245 65.32 73.2978 64.808 73.5965 64.296L75.0365 65.576C74.6525 66.28 74.1512 66.92 73.5325 67.496C72.9352 68.0507 72.2205 68.4987 71.3885 68.84C70.5778 69.16 69.6285 69.32 68.5405 69.32C66.9832 69.32 65.5752 68.9787 64.3165 68.296C63.0792 67.6133 62.0872 66.6427 61.3405 65.384C60.6152 64.1253 60.2525 62.6427 60.2525 60.936C60.2525 59.2293 60.5938 57.7467 61.2765 56.488C61.9592 55.208 62.8872 54.2053 64.0605 53.48C65.2338 52.7547 66.5352 52.392 67.9645 52.392C69.1378 52.392 70.1618 52.584 71.0365 52.968C71.9325 53.352 72.6792 53.9173 73.2765 54.664C73.8952 55.4107 74.3645 56.36 74.6845 57.512C75.0045 58.6427 75.1645 59.9653 75.1645 61.48H62.5565V59.784H73.0205L72.1245 60.424C72.1032 59.3573 72.0072 58.4293 71.8365 57.64C71.6658 56.8507 71.4098 56.2 71.0685 55.688C70.7272 55.176 70.3005 54.792 69.7885 54.536C69.2765 54.28 68.6685 54.152 67.9645 54.152C67.3032 54.152 66.6738 54.312 66.0765 54.632C65.5005 54.9307 64.9885 55.3787 64.5405 55.976C64.1138 56.5733 63.7725 57.2987 63.5165 58.152C63.2818 58.984 63.1645 59.9333 63.1645 61ZM88.5075 59.144V60.712C87.4408 60.8187 86.4808 60.9573 85.6275 61.128C84.7955 61.2987 84.0702 61.5013 83.4515 61.736C82.8542 61.9707 82.3635 62.248 81.9795 62.568C81.5955 62.8667 81.3075 63.2293 81.1155 63.656C80.9235 64.0613 80.8275 64.5093 80.8275 65C80.8275 65.5333 80.9448 66.0027 81.1795 66.408C81.4142 66.792 81.7448 67.0907 82.1715 67.304C82.5982 67.5173 83.0888 67.624 83.6435 67.624C84.3902 67.624 85.0515 67.4427 85.6275 67.08C86.2248 66.7173 86.7475 66.216 87.1955 65.576C87.6435 64.9147 88.0382 64.1467 88.3795 63.272L88.4435 65.352C88.1235 66.1627 87.6968 66.8667 87.1635 67.464C86.6302 68.0613 86.0008 68.52 85.2755 68.84C84.5715 69.16 83.7715 69.32 82.8755 69.32C81.9582 69.32 81.1155 69.1493 80.3475 68.808C79.6008 68.4667 78.9928 67.976 78.5235 67.336C78.0755 66.6747 77.8515 65.9067 77.8515 65.032C77.8515 64.1573 78.0755 63.4 78.5235 62.76C78.9715 62.0987 79.6435 61.5333 80.5395 61.064C81.4568 60.5947 82.5768 60.2107 83.8995 59.912C85.2222 59.6133 86.7582 59.3573 88.5075 59.144ZM87.9315 69V65.608L87.6435 65.512V57.768C87.6435 56.8507 87.5155 56.1253 87.2595 55.592C87.0248 55.0587 86.6622 54.6853 86.1715 54.472C85.7022 54.2587 85.1262 54.152 84.4435 54.152C83.3768 54.152 82.5022 54.3653 81.8195 54.792C81.1582 55.2187 80.6142 55.7307 80.1875 56.328C80.1662 56.0507 80.1875 55.8053 80.2515 55.592C80.3155 55.3573 80.4115 55.1547 80.5395 54.984C80.6675 54.8133 80.8275 54.6747 81.0195 54.568C81.2115 54.44 81.4142 54.3333 81.6275 54.248V57.576H78.8435V54.312C79.1635 54.056 79.5902 53.7787 80.1235 53.48C80.6782 53.1813 81.3395 52.9253 82.1075 52.712C82.8755 52.4987 83.7182 52.392 84.6355 52.392C85.4035 52.392 86.1288 52.4773 86.8115 52.648C87.4942 52.8187 88.1128 53.1067 88.6675 53.512C89.2222 53.9173 89.6595 54.4507 89.9795 55.112C90.2995 55.752 90.4595 56.5413 90.4595 57.48V66.44C90.4595 66.7387 90.5768 66.9733 90.8115 67.144C91.0462 67.3147 91.3555 67.432 91.7395 67.496C92.1235 67.56 92.5715 67.592 93.0835 67.592V69H87.9315ZM103.203 67.56C104.141 67.56 104.952 67.3893 105.635 67.048C106.317 66.6853 106.893 66.2373 107.363 65.704C107.853 65.1707 108.269 64.6587 108.611 64.168L109.955 65.448C109.507 66.152 108.963 66.8027 108.323 67.4C107.704 67.9973 106.957 68.4667 106.083 68.808C105.229 69.1493 104.227 69.32 103.075 69.32C101.411 69.32 99.9388 68.9573 98.6588 68.232C97.4001 67.5067 96.4188 66.5147 95.7148 65.256C95.0108 63.976 94.6588 62.504 94.6588 60.84C94.6588 59.1547 95.0214 57.6827 95.7468 56.424C96.4934 55.1653 97.5174 54.184 98.8188 53.48C100.141 52.7547 101.667 52.392 103.395 52.392C104.44 52.392 105.379 52.5093 106.211 52.744C107.043 52.9787 107.747 53.256 108.323 53.576C108.92 53.896 109.368 54.1947 109.667 54.472V58.376H106.851V54.76C107.085 54.8027 107.299 54.8773 107.491 54.984C107.683 55.0693 107.843 55.1973 107.971 55.368C108.12 55.5173 108.216 55.6987 108.259 55.912C108.323 56.1253 108.333 56.3707 108.291 56.648C107.907 55.9227 107.256 55.3253 106.339 54.856C105.443 54.3867 104.461 54.152 103.395 54.152C102.136 54.152 101.08 54.44 100.227 55.016C99.3734 55.5707 98.7334 56.36 98.3068 57.384C97.8801 58.3867 97.6668 59.5387 97.6668 60.84C97.6668 61.8427 97.7841 62.76 98.0188 63.592C98.2748 64.4027 98.6374 65.1067 99.1068 65.704C99.5761 66.3013 100.152 66.76 100.835 67.08C101.517 67.4 102.307 67.56 103.203 67.56ZM111.288 54.472V52.872H111.448C112.088 52.872 112.632 52.8293 113.08 52.744C113.549 52.6373 113.901 52.4667 114.136 52.232C114.371 51.976 114.488 51.624 114.488 51.176L116.472 52.712H121.848V54.472H111.288ZM117.08 63.528C117.08 64.4667 117.197 65.2347 117.432 65.832C117.667 66.408 118.008 66.824 118.456 67.08C118.904 67.336 119.427 67.464 120.024 67.464C120.472 67.464 120.888 67.4213 121.272 67.336C121.656 67.2507 121.976 67.1653 122.232 67.08V68.84C122.04 68.9253 121.805 69 121.528 69.064C121.272 69.1493 120.995 69.2133 120.696 69.256C120.397 69.2987 120.077 69.32 119.736 69.32C118.797 69.32 117.901 69.1493 117.048 68.808C116.216 68.4667 115.533 67.88 115 67.048C114.488 66.1947 114.232 65.032 114.232 63.56V53.16L114.488 52.936L114.52 48.264H117.08V63.528Z" fill="#F37726"/>
<path d="M23.2676 71V66.8164L28.6797 65.8867V27.6035H17.7227L16.7598 34.3105H11.8457V22.6562H52.0215V34.3105H47.1738L46.1777 27.6035H35.2207V65.8867L40.6328 66.8164V71H23.2676Z" fill="#616161"/>
<path d="M6.38281 81.7949L13.0664 79.5293C14.4258 83.6074 16.8047 86.5339 20.2031 88.3086C23.5638 90.0833 27.7363 90.9707 32.7207 90.9707H44.332C48.3724 90.9707 51.903 91.8203 54.9238 93.5195C57.9447 95.2188 60.2669 97.8431 61.8906 101.393C63.4388 97.8431 65.7233 95.2188 68.7441 93.5195C71.765 91.8203 75.3333 90.9707 79.4492 90.9707H91.1172C96.1016 90.9707 100.293 90.0833 103.691 88.3086C107.128 86.5339 109.507 83.6074 110.828 79.5293L117.455 81.7949C115.378 89.1204 112.074 94.3314 107.543 97.4277C103.049 100.562 97.5742 102.129 91.1172 102.129H79.4492C75.1823 102.129 71.8783 103.092 69.5371 105.018C67.2337 106.943 66.082 109.926 66.082 113.967H57.7559C57.7559 109.926 56.5664 106.943 54.1875 105.018C51.8464 103.092 48.5612 102.129 44.332 102.129H32.7207C26.3014 102.129 20.8262 100.562 16.2949 97.4277C11.7637 94.3314 8.45964 89.1204 6.38281 81.7949Z" fill="#F37726"/>
</svg>
