<svg width="331" height="95" viewBox="0 0 331 95" fill="none" xmlns="http://www.w3.org/2000/svg">
<path d="M307.683 87.5742L306.081 82.8496C308.964 81.8887 311.033 80.207 312.287 77.8047C313.542 75.429 314.169 72.4795 314.169 68.9561V60.748C314.169 57.8919 314.77 55.3962 315.971 53.2607C317.172 51.1253 319.027 49.4837 321.536 48.3359C319.027 47.2415 317.172 45.6266 315.971 43.4912C314.77 41.3558 314.169 38.8333 314.169 35.9238V27.6758C314.169 24.1523 313.542 21.1895 312.287 18.7871C311.033 16.3581 308.964 14.6764 306.081 13.7422L307.683 9.05762C312.861 10.5257 316.545 12.8613 318.733 16.0645C320.949 19.2409 322.057 23.1113 322.057 27.6758V35.9238C322.057 38.9401 322.737 41.2757 324.099 42.9307C325.46 44.5589 327.569 45.373 330.425 45.373V51.2588C327.569 51.2588 325.46 52.0996 324.099 53.7812C322.737 55.4362 322.057 57.7585 322.057 60.748V68.9561C322.057 73.4938 320.949 77.3643 318.733 80.5674C316.545 83.7705 312.861 86.1061 307.683 87.5742Z" fill="#F37726"/>
<path d="M25.2646 87.5742C20.0596 86.1061 16.3493 83.7705 14.1338 80.5674C11.945 77.3643 10.8506 73.4938 10.8506 68.9561V60.748C10.8506 57.7585 10.1699 55.4362 8.80859 53.7812C7.44727 52.0996 5.35189 51.2588 2.52246 51.2588V45.373C5.35189 45.373 7.44727 44.5589 8.80859 42.9307C10.1699 41.2757 10.8506 38.9401 10.8506 35.9238V27.6758C10.8506 23.1113 11.945 19.2409 14.1338 16.0645C16.3493 12.8613 20.0596 10.5257 25.2646 9.05762L26.8662 13.7422C23.93 14.6764 21.8346 16.3581 20.5801 18.7871C19.3522 21.1895 18.7383 24.1523 18.7383 27.6758V35.9238C18.7383 38.7266 18.1777 41.1956 17.0566 43.3311C15.9355 45.4665 14.2406 47.1348 11.9717 48.3359C14.2406 49.5638 15.9355 51.2588 17.0566 53.4209C18.1777 55.5563 18.7383 57.9987 18.7383 60.748V68.9561C18.7383 72.4795 19.3522 75.429 20.5801 77.8047C21.8346 80.207 23.93 81.8887 26.8662 82.8496L25.2646 87.5742Z" fill="#F37726"/>
<path d="M34.8164 67V63.6162L39.1938 62.8643V31.8999H30.3315L29.5527 37.3247H25.5781V27.8984H58.0732V37.3247H54.1523L53.3467 31.8999H44.4844V62.8643L48.8618 63.6162V67H34.8164ZM62.0747 67V63.6162L66.4521 62.8643V29.2681L62.0747 28.5161V25.1055H71.7427V41.8096C72.7453 40.4131 73.9717 39.3299 75.4219 38.5601C76.8721 37.7902 78.4834 37.4053 80.2559 37.4053C83.3711 37.4053 85.7881 38.3363 87.5068 40.1982C89.2256 42.0602 90.085 44.9248 90.085 48.792V62.8643L94.4624 63.6162V67H80.417V63.6162L84.7944 62.8643V48.7383C84.7944 46.3392 84.2752 44.5667 83.2368 43.4209C82.2163 42.2751 80.6855 41.7021 78.6445 41.7021C77.1943 41.7021 75.8695 42.0513 74.6699 42.7495C73.4883 43.4299 72.5125 44.3608 71.7427 45.5425V62.8643L76.1201 63.6162V67H62.0747ZM110.898 67.564C108.212 67.564 105.876 66.9552 103.889 65.7378C101.901 64.5024 100.362 62.7926 99.2695 60.6084C98.1953 58.4242 97.6582 55.8997 97.6582 53.0352V51.8535C97.6582 49.0964 98.2222 46.6346 99.3501 44.4683C100.496 42.284 102.009 40.5653 103.889 39.312C105.786 38.0409 107.854 37.4053 110.092 37.4053C112.706 37.4053 114.89 37.9424 116.645 39.0166C118.417 40.0908 119.751 41.6037 120.646 43.5552C121.542 45.4888 121.989 47.7715 121.989 50.4033V53.7065H103.137L103.056 53.8408C103.092 55.7028 103.414 57.3589 104.023 58.8091C104.65 60.2414 105.545 61.3693 106.708 62.1929C107.872 63.0164 109.269 63.4282 110.898 63.4282C112.688 63.4282 114.255 63.1776 115.598 62.6763C116.958 62.1571 118.131 61.4499 119.116 60.5547L121.184 63.9922C120.145 64.9948 118.767 65.8452 117.048 66.5435C115.347 67.2238 113.297 67.564 110.898 67.564ZM103.298 49.5708H116.699V48.8726C116.699 47.4761 116.448 46.2318 115.947 45.1396C115.463 44.0296 114.729 43.1613 113.745 42.5347C112.778 41.8901 111.56 41.5679 110.092 41.5679C108.911 41.5679 107.836 41.917 106.87 42.6152C105.903 43.2956 105.106 44.2266 104.479 45.4082C103.853 46.5898 103.441 47.9326 103.244 49.4365L103.298 49.5708ZM141.567 67.564C139.669 67.564 138.022 67.2059 136.625 66.4897C135.229 65.7557 134.065 64.6815 133.134 63.2671L132.651 67H128.085V29.2681L123.708 28.5161V25.1055H133.376V41.3799C134.289 40.0908 135.417 39.1061 136.76 38.4258C138.12 37.7454 139.705 37.4053 141.513 37.4053C143.912 37.4053 145.953 38.0588 147.636 39.3657C149.337 40.6548 150.635 42.472 151.53 44.8174C152.443 47.1628 152.9 49.8931 152.9 53.0083V53.5723C152.9 56.3652 152.443 58.8091 151.53 60.9038C150.635 62.9985 149.337 64.6367 147.636 65.8184C145.953 66.9821 143.93 67.564 141.567 67.564ZM140.224 63.2671C142.713 63.2671 144.557 62.3809 145.756 60.6084C146.974 58.8359 147.583 56.4906 147.583 53.5723V53.0083C147.583 50.7703 147.314 48.8099 146.777 47.127C146.24 45.4261 145.425 44.1012 144.333 43.1523C143.241 42.1855 141.853 41.7021 140.17 41.7021C138.541 41.7021 137.163 42.096 136.035 42.8838C134.925 43.6715 134.038 44.7279 133.376 46.0527V58.8896C134.038 60.2324 134.934 61.2977 136.062 62.0854C137.207 62.8732 138.595 63.2671 140.224 63.2671ZM171.215 67.564C168.53 67.564 166.193 66.9552 164.206 65.7378C162.219 64.5024 160.679 62.7926 159.587 60.6084C158.513 58.4242 157.976 55.8997 157.976 53.0352V51.8535C157.976 49.0964 158.54 46.6346 159.667 44.4683C160.813 42.284 162.326 40.5653 164.206 39.312C166.104 38.0409 168.172 37.4053 170.41 37.4053C173.024 37.4053 175.208 37.9424 176.962 39.0166C178.735 40.0908 180.069 41.6037 180.964 43.5552C181.859 45.4888 182.307 47.7715 182.307 50.4033V53.7065H163.454L163.374 53.8408C163.409 55.7028 163.732 57.3589 164.34 58.8091C164.967 60.2414 165.862 61.3693 167.026 62.1929C168.19 63.0164 169.586 63.4282 171.215 63.4282C173.006 63.4282 174.572 63.1776 175.915 62.6763C177.276 62.1571 178.448 61.4499 179.433 60.5547L181.501 63.9922C180.463 64.9948 179.084 65.8452 177.365 66.5435C175.664 67.2238 173.614 67.564 171.215 67.564ZM163.615 49.5708H177.016V48.8726C177.016 47.4761 176.765 46.2318 176.264 45.1396C175.781 44.0296 175.047 43.1613 174.062 42.5347C173.095 41.8901 171.878 41.5679 170.41 41.5679C169.228 41.5679 168.154 41.917 167.187 42.6152C166.22 43.2956 165.424 44.2266 164.797 45.4082C164.17 46.5898 163.758 47.9326 163.562 49.4365L163.615 49.5708Z" fill="#616161"/>
<path d="M206.105 65.8C207.682 65.8 209.057 65.5067 210.23 64.92C211.403 64.3333 212.393 63.6 213.2 62.72C214.043 61.8033 214.758 60.8867 215.345 59.97L217.49 61.95C216.72 63.1967 215.785 64.3333 214.685 65.36C213.622 66.35 212.357 67.1383 210.89 67.725C209.46 68.275 207.773 68.55 205.83 68.55C203.007 68.55 200.495 67.9267 198.295 66.68C196.132 65.4333 194.445 63.71 193.235 61.51C192.025 59.31 191.42 56.78 191.42 53.92C191.42 51.0233 192.043 48.4933 193.29 46.33C194.537 44.1667 196.278 42.4617 198.515 41.215C200.788 39.9683 203.41 39.345 206.38 39.345C208.14 39.345 209.717 39.5467 211.11 39.95C212.503 40.3167 213.695 40.775 214.685 41.325C215.712 41.8383 216.482 42.3517 216.995 42.865V49.3H212.21V43.085C212.613 43.1217 212.98 43.2317 213.31 43.415C213.64 43.5983 213.915 43.8367 214.135 44.13C214.392 44.3867 214.575 44.6983 214.685 45.065C214.795 45.4317 214.795 45.835 214.685 46.275C214.062 45.1017 212.98 44.1117 211.44 43.305C209.937 42.4983 208.25 42.095 206.38 42.095C204.217 42.095 202.402 42.6083 200.935 43.635C199.468 44.625 198.368 46.0183 197.635 47.815C196.938 49.575 196.59 51.61 196.59 53.92C196.59 55.68 196.792 57.2933 197.195 58.76C197.635 60.2267 198.258 61.4917 199.065 62.555C199.872 63.5817 200.862 64.3883 202.035 64.975C203.208 65.525 204.565 65.8 206.105 65.8ZM250.423 53.975C250.423 56.7983 249.8 59.3283 248.553 61.565C247.343 63.765 245.656 65.4883 243.493 66.735C241.33 67.945 238.855 68.55 236.068 68.55C233.281 68.55 230.806 67.945 228.643 66.735C226.48 65.4883 224.775 63.765 223.528 61.565C222.318 59.3283 221.713 56.7983 221.713 53.975C221.713 51.8483 222.061 49.8867 222.758 48.09C223.455 46.2933 224.445 44.7533 225.728 43.47C227.048 42.15 228.57 41.1417 230.293 40.445C232.053 39.7117 233.978 39.345 236.068 39.345C238.158 39.345 240.065 39.7117 241.788 40.445C243.548 41.1417 245.07 42.15 246.353 43.47C247.673 44.7533 248.681 46.2933 249.378 48.09C250.075 49.8867 250.423 51.8483 250.423 53.975ZM226.883 53.975C226.883 56.3217 227.25 58.3933 227.983 60.19C228.716 61.9867 229.761 63.38 231.118 64.37C232.511 65.3233 234.161 65.8 236.068 65.8C238.011 65.8 239.661 65.3233 241.018 64.37C242.375 63.38 243.42 61.9867 244.153 60.19C244.886 58.3933 245.253 56.3217 245.253 53.975C245.253 51.5917 244.886 49.52 244.153 47.76C243.42 45.9633 242.375 44.57 241.018 43.58C239.661 42.59 238.011 42.095 236.068 42.095C234.161 42.095 232.511 42.59 231.118 43.58C229.761 44.57 228.716 45.9633 227.983 47.76C227.25 49.52 226.883 51.5917 226.883 53.975ZM274.037 39.51V44.35C273.781 44.24 273.469 44.1667 273.102 44.13C272.772 44.0567 272.424 44.0017 272.057 43.965C271.691 43.9283 271.324 43.91 270.957 43.91C270.004 43.91 269.161 44.0567 268.427 44.35C267.731 44.6067 267.089 45.01 266.502 45.56C265.952 46.0733 265.439 46.7517 264.962 47.595C264.522 48.4017 264.046 49.3917 263.532 50.565L263.367 47.43C263.954 45.8167 264.669 44.405 265.512 43.195C266.356 41.985 267.327 41.05 268.427 40.39C269.564 39.6933 270.811 39.345 272.167 39.345C272.571 39.345 272.937 39.3633 273.267 39.4C273.597 39.4 273.854 39.4367 274.037 39.51ZM254.897 68V65.745H254.952C256.236 65.745 257.299 65.6167 258.142 65.36C258.986 65.1033 259.407 64.5717 259.407 63.765V44.79C259.407 44.24 259.261 43.8183 258.967 43.525C258.674 43.2317 258.234 42.9933 257.647 42.81C257.061 42.6267 256.327 42.4617 255.447 42.315L254.897 42.205V39.895H263.862V47.87L264.302 47.375V64.205C264.302 64.6817 264.541 65.03 265.017 65.25C265.531 65.47 266.136 65.6167 266.832 65.69C267.529 65.7267 268.171 65.745 268.757 65.745H269.747V68H254.897ZM282.2 54.195C282.2 56.0283 282.438 57.6783 282.915 59.145C283.392 60.575 284.052 61.785 284.895 62.775C285.775 63.765 286.783 64.5167 287.92 65.03C289.093 65.5433 290.358 65.8 291.715 65.8C293.218 65.8 294.52 65.525 295.62 64.975C296.72 64.3883 297.655 63.6733 298.425 62.83C299.195 61.95 299.855 61.0517 300.405 60.135L302.66 62.17C302 63.38 301.138 64.48 300.075 65.47C299.012 66.4233 297.783 67.175 296.39 67.725C294.997 68.275 293.383 68.55 291.55 68.55C288.873 68.55 286.453 67.9633 284.29 66.79C282.127 65.6167 280.403 63.9483 279.12 61.785C277.873 59.585 277.25 57.0183 277.25 54.085C277.25 51.1517 277.837 48.585 279.01 46.385C280.183 44.185 281.778 42.4617 283.795 41.215C285.812 39.9683 288.067 39.345 290.56 39.345C292.54 39.345 294.282 39.675 295.785 40.335C297.325 40.995 298.608 41.9667 299.635 43.25C300.698 44.4967 301.505 46.0733 302.055 47.98C302.605 49.8867 302.88 52.105 302.88 54.635H281.1V51.995H299.25L297.71 53.04C297.673 51.2067 297.508 49.6117 297.215 48.255C296.922 46.8617 296.482 45.725 295.895 44.845C295.308 43.9283 294.575 43.25 293.695 42.81C292.815 42.3333 291.77 42.095 290.56 42.095C289.387 42.095 288.287 42.37 287.26 42.92C286.27 43.47 285.39 44.2767 284.62 45.34C283.85 46.4033 283.245 47.6867 282.805 49.19C282.402 50.6567 282.2 52.325 282.2 54.195Z" fill="#F37726"/>
</svg>
